<?xml version="1.0" encoding="utf-8"?>
<!-- Generator: Adobe Illustrator 16.0.0, SVG Export Plug-In . SVG Version: 6.00 Build 0)  -->
<!DOCTYPE svg PUBLIC "-//W3C//DTD SVG 1.1//EN" "http://www.w3.org/Graphics/SVG/1.1/DTD/svg11.dtd">
<svg version="1.1" id="Layer_1" xmlns="http://www.w3.org/2000/svg" xmlns:xlink="http://www.w3.org/1999/xlink" x="0px" y="0px"
	 width="128px" height="128px" viewBox="0 0 128 128" enable-background="new 0 0 128 128" xml:space="preserve">
<g>
	<g>
		<g>
			<path fill="#FF0000" d="M108.95,128h-4V82.952l0.594-0.587c8.77-8.669,13.599-20.187,13.599-32.432
				C119.143,24.605,98.25,4,72.57,4C46.888,4,25.992,24.605,25.992,49.933c0,0.699,0.026,1.389,0.057,2.08l0.025,0.588
				l-14.24,24.338h9.798v20.924c0,6.025,4.977,10.928,11.095,10.928h22.745V128h-4v-15.209H32.727
				c-8.323,0-15.095-6.696-15.095-14.928V80.939H4.857l17.171-29.343c-0.021-0.552-0.036-1.105-0.036-1.663
				C21.992,22.4,44.682,0,72.57,0c27.886,0,50.572,22.4,50.572,49.933c0,13.043-5.033,25.325-14.192,34.679V128z"/>
		</g>
	</g>

</g>
</svg>
