<?xml version="1.0" encoding="utf-8"?>
<!-- Generator: Adobe Illustrator 16.0.0, SVG Export Plug-In . SVG Version: 6.00 Build 0)  -->
<!DOCTYPE svg PUBLIC "-//W3C//DTD SVG 1.1//EN" "http://www.w3.org/Graphics/SVG/1.1/DTD/svg11.dtd">
<svg version="1.1" id="Layer_1" xmlns="http://www.w3.org/2000/svg" xmlns:xlink="http://www.w3.org/1999/xlink" x="0px" y="0px"
	 width="128px" height="128px" viewBox="0 0 128 128" enable-background="new 0 0 128 128" xml:space="preserve">
<g>
	<g>
		<polygon fill="#282D33" points="121.023,126.777 56.08,126.777 56.08,74.441 23.014,74.441 23.014,126.777 6.982,126.777 
			6.982,58.77 10.988,58.77 10.988,122.772 19.008,122.772 19.008,70.437 60.085,70.437 60.085,122.772 117.019,122.772 
			117.019,58.77 121.023,58.77 		"/>
	</g>
	<g>
		<polygon fill="#282D33" points="23.014,32.788 19.008,32.788 19.008,8.131 38.2,8.131 38.2,16.751 34.195,16.751 34.195,12.137 
			23.014,12.137 		"/>
	</g>
	<g>
		<path fill="#282D33" d="M101.978,73.512V99.61H72.349V73.512H101.978 M105.91,69.582H68.419v33.959h37.489V69.582H105.91z"/>
	</g>
	<g>
		<polygon fill="#282D33" points="125.168,68.055 64,6.888 2.832,68.055 0,65.223 64,1.223 128,65.223 		"/>
	</g>
	<g>
		<rect x="41.303" y="100.964" fill="#282D33" width="7.633" height="4.005"/>
	</g>
	<g>
		<rect x="65.736" y="98.331" fill="#282D33" width="42.853" height="4.006"/>
	</g>
</g>
</svg>
