<?xml version="1.0" encoding="utf-8"?>
<!-- Generator: Adobe Illustrator 16.0.0, SVG Export Plug-In . SVG Version: 6.00 Build 0)  -->
<!DOCTYPE svg PUBLIC "-//W3C//DTD SVG 1.1//EN" "http://www.w3.org/Graphics/SVG/1.1/DTD/svg11.dtd">
<svg version="1.1" id="Layer_1" xmlns="http://www.w3.org/2000/svg" xmlns:xlink="http://www.w3.org/1999/xlink" x="0px" y="0px"
	 width="128px" height="128px" viewBox="0 0 128 128" enable-background="new 0 0 128 128" xml:space="preserve">
<g>
	<g>
		<g>
			<g>
				<path fill="#282D33" d="M122.482,98.622H5.518v-69.17h116.965V98.622z M9.518,94.622h108.965v-61.17H9.518V94.622z"/>
			</g>
			<g>
				<path fill="#282D33" d="M63.952,79.498c-2.073,0-4.03-0.697-5.512-1.964L6.206,32.899l1.3-3.52H120.4l1.3,3.52L69.468,77.534
					C67.982,78.801,66.024,79.498,63.952,79.498z M12.923,33.379l48.116,41.114c0.747,0.639,1.809,1.005,2.913,1.005
					c1.105,0,2.169-0.366,2.919-1.006l48.112-41.113H12.923z"/>
			</g>
		</g>
		<g>
			
				<rect x="24.745" y="55.048" transform="matrix(0.6542 0.7563 -0.7563 0.6542 69.6785 7.4005)" fill="#282D33" width="4" height="49.714"/>
		</g>
		<g>
			
				<rect x="76.733" y="77.905" transform="matrix(0.7563 0.6542 -0.6542 0.7563 77.0278 -46.9896)" fill="#282D33" width="49.717" height="4"/>
		</g>
	</g>
	<g>
		<g>
			<rect x="61.993" fill="#282D33" width="4" height="12.798"/>
		</g>
		<g>
			<g>
				
					<rect x="34.92" y="9.496" transform="matrix(0.422 0.9066 -0.9066 0.422 34.3037 -30.8128)" fill="#282D33" width="12.793" height="4"/>
			</g>
			<g>
				
					<rect x="84.672" y="5.099" transform="matrix(0.9067 0.4218 -0.4218 0.9067 12.9386 -35.489)" fill="#282D33" width="4" height="12.793"/>
			</g>
		</g>
		<g>
			<rect x="61.993" y="115.202" fill="#282D33" width="4" height="12.798"/>
		</g>
		<g>
			<g>
				
					<rect x="80.276" y="114.504" transform="matrix(0.422 0.9066 -0.9066 0.422 155.7184 -11.2371)" fill="#282D33" width="12.793" height="4"/>
			</g>
			<g>
				
					<rect x="39.316" y="110.108" transform="matrix(0.9066 0.4219 -0.4219 0.9066 53.0151 -6.5542)" fill="#282D33" width="3.999" height="12.793"/>
			</g>
		</g>
	</g>
</g>
</svg>
