<svg xmlns="http://www.w3.org/2000/svg" viewBox="0 0 64 64"><title>Email</title><g id="Email-2" data-name="Email"><path d="M55,18H1a1,1,0,0,0-1,1V53a1,1,0,0,0,1,1H55a1,1,0,0,0,1-1V19A1,1,0,0,0,55,18ZM54,52H2V20H54Z" style="fill:#1b1a1e"/><path d="M59,14H5a1,1,0,0,0,0,2H58V49a1,1,0,0,0,2,0V15A1,1,0,0,0,59,14Z" style="fill:#1b1a1e"/><path d="M63,10H9a1,1,0,0,0,0,2H62V45a1,1,0,0,0,2,0V11A1,1,0,0,0,63,10Z" style="fill:#1b1a1e"/><path d="M6.11,49.7422,21.292,36.05l6.0942,4.7394a.9986.9986,0,0,0,1.2276,0L34.708,36.05,49.89,49.7422a1,1,0,1,0,1.34-1.4844L36.3113,34.8029,50.4736,23.7891a1,1,0,1,0-1.2275-1.5782L28,38.7334,6.7539,22.2109a1,1,0,1,0-1.2275,1.5782L19.6887,34.8029,4.77,48.2578a1,1,0,1,0,1.34,1.4844Z" style="fill:#1b1a1e"/></g></svg>