<?xml version="1.0" encoding="utf-8"?>
<!-- Generator: Adobe Illustrator 16.0.0, SVG Export Plug-In . SVG Version: 6.00 Build 0)  -->
<!DOCTYPE svg PUBLIC "-//W3C//DTD SVG 1.1//EN" "http://www.w3.org/Graphics/SVG/1.1/DTD/svg11.dtd">
<svg version="1.1" id="Layer_1" xmlns="http://www.w3.org/2000/svg" xmlns:xlink="http://www.w3.org/1999/xlink" x="0px" y="0px"
	 width="128px" height="128px" viewBox="0 0 128 128" enable-background="new 0 0 128 128" xml:space="preserve">
<g>
	<g>
		<g>
			<polygon fill="#282D33" points="42.62,62.208 0.743,19.84 20.354,0 62.411,42.553 59.56,45.372 20.354,5.704 6.381,19.84 
				45.472,59.39 			"/>
		</g>
		<g>
			<polygon fill="#282D33" points="107.648,128 66.212,86.077 69.065,83.258 107.648,122.297 121.62,108.16 82.78,68.861 
				85.633,66.042 127.257,108.16 			"/>
		</g>
		<g>
			
				<rect x="21.599" y="8.563" transform="matrix(0.7111 0.7031 -0.7031 0.7111 16.8772 -12.4626)" fill="#282D33" width="4.01" height="11.487"/>
		</g>
		<g>
			
				<rect x="30.748" y="16.702" transform="matrix(0.7114 0.7028 -0.7028 0.7114 23.3661 -17.3067)" fill="#282D33" width="4.01" height="6.184"/>
		</g>
		<g>
			
				<rect x="36.171" y="23.308" transform="matrix(0.7112 0.703 -0.703 0.7112 31.4452 -18.447)" fill="#282D33" width="4.009" height="11.486"/>
		</g>
		<g>
			
				<rect x="45.32" y="31.445" transform="matrix(0.7112 0.703 -0.703 0.7112 37.9441 -23.2934)" fill="#282D33" width="4.009" height="6.185"/>
		</g>
		<g>
			
				<rect x="50.743" y="38.052" transform="matrix(0.7112 0.703 -0.703 0.7112 46.0167 -24.4334)" fill="#282D33" width="4.009" height="11.483"/>
		</g>
		<g>
			
				<rect x="79.886" y="67.537" transform="matrix(0.711 0.7032 -0.7032 0.711 75.1969 -36.4072)" fill="#282D33" width="4.009" height="11.484"/>
		</g>
		<g>
			
				<rect x="89.036" y="75.675" transform="matrix(0.7112 0.703 -0.703 0.7112 81.6596 -41.2524)" fill="#282D33" width="4.011" height="6.186"/>
		</g>
		<g>
			
				<rect x="94.459" y="82.281" transform="matrix(0.7112 0.703 -0.703 0.7112 89.7318 -42.3921)" fill="#282D33" width="4.011" height="11.484"/>
		</g>
		<g>
			
				<rect x="103.608" y="90.417" transform="matrix(0.7115 0.7027 -0.7027 0.7115 96.181 -47.2353)" fill="#282D33" width="4.009" height="6.185"/>
		</g>
		<g>
			
				<rect x="109.03" y="97.024" transform="matrix(0.7112 0.703 -0.703 0.7112 104.3033 -48.3777)" fill="#282D33" width="4.011" height="11.485"/>
		</g>
	</g>
	<g>
		<g>
			<polygon fill="#282D33" points="4.428,124.255 10.583,103.168 13.021,100.703 15.872,103.524 14.147,105.267 10.343,118.304 
				23.18,114.469 24.9,112.727 27.754,115.544 25.312,118.017 			"/>
		</g>
		<g>
			<path fill="#282D33" d="M102.151,15.258l10.023,10.143l-85.684,86.692l-10.027-10.144L102.151,15.258 M102.151,9.727
				l-91.154,92.223l15.494,15.676l91.152-92.223L102.151,9.727L102.151,9.727z"/>
		</g>
		<g>
			
				<rect x="63.389" y="0.887" transform="matrix(0.7111 0.7031 -0.7031 0.7111 62.8971 -27.8952)" fill="#282D33" width="4.01" height="123.406"/>
		</g>
		<g>
			<path fill="#282D33" d="M116.822,25.548l-2.853-2.818l4.506-4.561l-9.17-9.296l-4.482,4.536l-2.853-2.818l4.834-4.891
				c0.63-0.635,1.482-0.985,2.402-0.985c0.002,0,0.004,0,0.006,0c1.037,0.002,2.074,0.454,2.848,1.24l9.354,9.462
				c1.521,1.541,1.624,3.843,0.237,5.243L116.822,25.548z"/>
		</g>
	</g>
</g>
</svg>
