<svg id="Layer_1" data-name="Layer 1" xmlns="http://www.w3.org/2000/svg" viewBox="0 0 128 128"><title>SMARTPHONE</title><path d="M97.808,4.75H30.192a7.759,7.759,0,0,0-7.75,7.75v103a7.759,7.759,0,0,0,7.75,7.75H97.808a7.759,7.759,0,0,0,7.75-7.75V12.5A7.759,7.759,0,0,0,97.808,4.75ZM25.942,25.942h76.115v76.115H25.942ZM30.192,8.25H97.808a4.255,4.255,0,0,1,4.25,4.25v9.942H25.942V12.5A4.255,4.255,0,0,1,30.192,8.25Zm67.615,111.5H30.192a4.255,4.255,0,0,1-4.25-4.25v-9.942h76.115V115.5A4.255,4.255,0,0,1,97.808,119.75Z"/><circle cx="64" cy="112.654" r="4"/><path d="M55.154,17.1H72.846a1.75,1.75,0,0,0,0-3.5H55.154a1.75,1.75,0,0,0,0,3.5Z"/></svg>